<?xml version="1.0" encoding="UTF-8"?>
<svg version="1.1" xmlns="http://www.w3.org/2000/svg" width="2625" height="1138">
<path d="M0 0 C866.25 0 1732.5 0 2625 0 C2625 375.54 2625 751.08 2625 1138 C1758.75 1138 892.5 1138 0 1138 C0 762.46 0 386.92 0 0 Z " fill="#FEFEFE" transform="translate(0,0)"/>
<path d="M0 0 C14.23359874 12.26468594 20.52018964 28.00738388 24.3125 45.875 C24.539375 46.87015625 24.76625 47.8653125 25 48.890625 C26.86190725 58.1484416 26.55858425 67.48208918 26.3125 76.875 C26.29445313 77.9990625 26.27640625 79.123125 26.2578125 80.28125 C25.37233453 100.4909824 18.23235028 121.27458265 5.3125 136.875 C4.61253906 137.74898437 3.91257812 138.62296875 3.19140625 139.5234375 C-7.24740577 151.91603787 -22.64338575 159.79550364 -38.6875 161.875 C-50.86998334 162.76830334 -62.32691468 162.76565557 -73.6875 157.875 C-74.41582031 157.58625 -75.14414063 157.2975 -75.89453125 157 C-86.5483326 152.29299506 -92.87276897 144.24525516 -99.6875 134.875 C-100.0175 167.875 -100.3475 200.875 -100.6875 234.875 C-109.5975 234.875 -118.5075 234.875 -127.6875 234.875 C-127.6875 154.025 -127.6875 73.175 -127.6875 -10.125 C-118.7775 -10.125 -109.8675 -10.125 -100.6875 -10.125 C-100.3575 -0.885 -100.0275 8.355 -99.6875 17.875 C-98.388125 16.06 -97.08875 14.245 -95.75 12.375 C-85.38588237 -1.57177558 -71.10554537 -11.01473102 -53.86621094 -13.84375 C-34.30465035 -16.3689537 -15.80767192 -12.12433089 0 0 Z " fill="#1E1E1E" transform="translate(2142.6875,510.125)"/>
<path d="M0 0 C11.88 0 23.76 0 36 0 C43.32402019 15.81988361 50.39741493 31.72606799 57.29562378 47.73490906 C60.90359361 56.10395963 64.54523124 64.45833313 68.1875 72.8125 C68.54173035 73.62525391 68.89596069 74.43800781 69.26092529 75.27539062 C74.52060811 87.34166937 79.80461577 99.39713838 85.10076904 111.44744873 C107.09024039 161.4840359 107.09024039 161.4840359 114.28735352 179.35620117 C114.78513306 180.59140503 114.78513306 180.59140503 115.29296875 181.8515625 C115.5768042 182.56135254 115.86063965 183.27114258 116.15307617 184.00244141 C117.02072265 186.04887653 117.98536656 188.02286514 119 190 C119.18884766 189.45625732 119.37769531 188.91251465 119.57226562 188.35229492 C125.70478441 170.91159821 133.20482342 154.26094733 140.98579407 137.51387024 C144.28266315 130.41200127 147.49517706 123.27445286 150.6875 116.125 C151.47398926 114.36603394 151.47398926 114.36603394 152.27636719 112.5715332 C153.32577962 110.22398397 154.37477321 107.87624746 155.42333984 105.52832031 C158.10985265 99.51632232 160.80543059 93.5083902 163.5 87.5 C166.69258189 80.37943278 169.88441971 73.25853307 173.07421875 66.13671875 C179.19391523 52.4751496 185.3232637 38.81791718 191.46157837 25.16470337 C192.27466821 23.35589169 193.08747636 21.54695335 193.8999939 19.73788452 C195.04058732 17.19858702 196.18226511 14.65977978 197.32421875 12.12109375 C197.66634399 11.35887512 198.00846924 10.59665649 198.36096191 9.81134033 C198.6797229 9.10330261 198.99848389 8.39526489 199.3269043 7.66577148 C199.60302048 7.05152817 199.87913666 6.43728485 200.16362 5.8044281 C201.06922706 3.85064773 202.03694425 1.9261115 203 0 C214.55 0 226.1 0 238 0 C238 77.55 238 155.1 238 235 C228.76 235 219.52 235 210 235 C209.97675704 212.4324077 209.95895754 189.86481832 209.94818783 167.29721642 C209.94305225 156.81646693 209.93606233 146.33572506 209.92456055 135.85498047 C209.91452942 126.70990259 209.90812671 117.56483023 209.90591151 108.41974699 C209.90461858 103.58667226 209.90162411 98.7536133 209.89426994 93.92054367 C209.83763699 55.26518666 209.83763699 55.26518666 211 37 C210.70582184 38.02261932 210.41164368 39.04523865 210.10855103 40.09884644 C206.78523528 51.49817065 202.19652579 62.13228877 197.3125 72.9375 C196.46579298 74.82897802 195.62011069 76.72091504 194.77539062 78.61328125 C193.03772328 82.50512026 191.29653888 86.39535642 189.55322266 90.28466797 C186.02649085 98.16514329 182.56319338 106.07324442 179.10192871 113.9826355 C177.24648829 118.22140321 175.3871084 122.45844061 173.52734375 126.6953125 C172.97139023 127.96189949 172.97139023 127.96189949 172.40420532 129.2540741 C168.13863922 138.96767374 163.8517014 148.67181895 159.5625 158.375 C159.17350525 159.25511749 158.7845105 160.13523499 158.38372803 161.04202271 C154.28372867 170.31798693 150.18081001 179.59265457 146.07426453 188.86572266 C144.34072196 192.78080307 142.60815159 196.69631332 140.8757019 200.61187744 C140.05419506 202.46784989 139.23220888 204.32361026 138.40969849 206.17913818 C134.1690101 215.74586466 129.97385156 225.31868435 126 235 C121.38 235 116.76 235 112 235 C106.90138825 225.04334009 102.25820753 214.96898546 97.8081665 204.70806885 C95.85115883 200.19728393 93.88075783 195.69235933 91.91015625 191.1875 C91.50541077 190.26188263 91.10066528 189.33626526 90.68365479 188.38259888 C86.39872421 178.59942177 82.01941709 168.85937942 77.625 159.125 C76.85877993 157.42685066 76.09258509 155.72868993 75.32641602 154.03051758 C74.95468765 153.20662033 74.58295929 152.38272308 74.19996643 151.53385925 C73.83491501 150.72475601 73.46986359 149.91565277 73.09375 149.08203125 C72.73550644 148.28819534 72.37726288 147.49435944 72.00816345 146.6764679 C68.08345927 137.97571089 64.20653307 129.25401251 60.33984375 120.52734375 C58.02932774 115.31343845 55.70925146 110.10387659 53.38494873 104.89610291 C51.59830842 100.89245476 49.81360572 96.88794403 48.0289917 92.88339233 C47.14948691 90.91103911 46.26918465 88.93904125 45.38800049 86.96743774 C41.23704532 77.67851808 37.09650785 68.38351851 33.14453125 59.0078125 C32.74979866 58.09369095 32.74979866 58.09369095 32.34709167 57.16110229 C29.59610116 50.53607557 28.01293585 44.04527546 26 37 C26 102.34 26 167.68 26 235 C17.42 235 8.84 235 0 235 C0 157.45 0 79.9 0 0 Z " fill="#1E1E1E" transform="translate(63,151)"/>
<path d="M0 0 C0.64710938 0.48210937 1.29421875 0.96421875 1.9609375 1.4609375 C14.41903554 11.21320429 21.22236289 27.06116234 25 42 C25.17805176 42.67450195 25.35610352 43.34900391 25.53955078 44.04394531 C27.43972053 52.12348744 27.39622866 60.25002717 27.375 68.5 C27.37478851 69.25500793 27.37457703 70.01001587 27.37435913 70.78790283 C27.32902542 86.9838542 25.32454445 101.33033653 18 116 C17.52046875 116.97066406 17.0409375 117.94132813 16.546875 118.94140625 C5.48749282 139.53011045 -11.78596076 150.24927525 -33.4765625 157.09765625 C-54.23383009 162.41354185 -77.94683466 159.51589066 -97 150 C-100.88902395 147.57359776 -104.45344794 144.89851098 -108 142 C-108.63164063 141.53078125 -109.26328125 141.0615625 -109.9140625 140.578125 C-124.07232098 129.58769604 -131.29465829 111.98126453 -135 95 C-135.22558594 94.05125 -135.45117188 93.1025 -135.68359375 92.125 C-140.70801397 67.73057354 -136.34107846 39.09515706 -123 18 C-119.75382595 13.19665109 -116.2490408 8.95933347 -112 5 C-111.34902344 4.33226562 -110.69804688 3.66453125 -110.02734375 2.9765625 C-81.58198286 -24.85145333 -30.15725616 -24.0300676 0 0 Z " fill="#1E1E1E" transform="translate(1100,231)"/>
<path d="M0 0 C2.49094647 2.20788437 4.74758946 4.55360195 7 7 C7.79664063 7.76183594 8.59328125 8.52367187 9.4140625 9.30859375 C17.6928608 17.92504696 22.76095334 28.60617703 26 40 C26.31839844 41.04285156 26.63679687 42.08570313 26.96484375 43.16015625 C33.55995336 69.14549595 30.09013876 100.47870502 16.9765625 123.83203125 C4.5002753 143.82861014 -12.70313249 154.11423662 -35 160 C-55.66155151 164.08471199 -80.12486874 161.28074815 -98.13671875 150.04296875 C-100.84047528 148.11382187 -103.42878743 146.10138968 -106 144 C-106.63164063 143.53078125 -107.26328125 143.0615625 -107.9140625 142.578125 C-122.07232098 131.58769604 -129.29465829 113.98126453 -133 97 C-133.22558594 96.05125 -133.45117188 95.1025 -133.68359375 94.125 C-139.29846199 66.86384661 -133.18708414 38.53024004 -118.31640625 15.37890625 C-113.82490323 9.16404476 -108.09436177 4.58379346 -102 0 C-101.28070312 -0.556875 -100.56140625 -1.11375 -99.8203125 -1.6875 C-72.10676626 -21.7667486 -26.95654445 -20.21740834 0 0 Z " fill="#1E1E1E" transform="translate(792,229)"/>
<path d="M0 0 C11.88 0 23.76 0 36 0 C42.74362018 13.48724036 42.74362018 13.48724036 44.796875 18.29296875 C45.27068604 19.39511719 45.74449707 20.49726562 46.23266602 21.6328125 C46.73338623 22.80585937 47.23410645 23.97890625 47.75 25.1875 C48.89765719 27.85897072 50.0483643 30.52912408 51.19921875 33.19921875 C51.50218369 33.90283539 51.80514862 34.60645203 52.11729431 35.33139038 C55.51722332 43.21827084 58.97663602 51.0788657 62.43591309 58.93984985 C70.17763184 76.53277779 77.86087217 94.15052643 85.50878906 111.78442383 C89.64759664 121.3222176 93.80811689 130.84948645 98.01953125 140.35546875 C98.83401576 142.19725175 99.64846936 144.03904841 100.46289062 145.88085938 C101.96952515 149.28739185 103.48344461 152.69054416 105.00195312 156.09179688 C108.57519047 164.14040557 111.94170397 172.23307107 115.01171875 180.48828125 C115.46536552 181.70115059 115.46536552 181.70115059 115.92817688 182.93852234 C117.07066654 186.07415572 118 188.63584628 118 192 C118.66 192 119.32 192 120 192 C120.10812012 191.44747559 120.21624023 190.89495117 120.32763672 190.32568359 C121.46207289 184.85089694 123.01601228 179.79717471 125.125 174.625 C125.45918945 173.79685791 125.79337891 172.96871582 126.13769531 172.11547852 C131.3734879 159.39178222 137.28095341 146.95009013 143.03782654 134.4566803 C146.05908103 127.89105214 149.01384269 121.2971757 151.9375 114.6875 C156.74601091 103.8221068 161.58317649 92.96999606 166.4375 82.125 C166.80201263 81.31051392 167.16652527 80.49602783 167.54208374 79.65686035 C172.27474043 69.08225475 177.01098625 58.50925808 181.75 47.9375 C182.26272461 46.79361816 182.77544922 45.64973633 183.30371094 44.47119141 C185.76741437 38.97577702 188.23269909 33.48108031 190.70144653 27.9879303 C191.90691821 25.30535079 193.11163838 22.62243411 194.31628418 19.93948364 C194.89004277 18.66219347 195.46417077 17.38506917 196.03869629 16.10812378 C196.83270333 14.34332779 197.62536399 12.57792623 198.41796875 10.8125 C198.86938232 9.80832031 199.3207959 8.80414062 199.78588867 7.76953125 C200.91116241 5.20264904 201.95910348 2.60224129 203 0 C214.55 0 226.1 0 238 0 C238 77.55 238 155.1 238 235 C229.09 235 220.18 235 211 235 C210.97682254 210.69509457 210.95899077 186.39019182 210.94818783 162.08527756 C210.94303787 150.79936089 210.93601999 139.51345123 210.92456055 128.22753906 C210.91457394 118.38744516 210.90813711 108.54735634 210.90591151 98.70725751 C210.90461115 93.50003 210.90156813 88.29281702 210.89426994 83.08559418 C210.88744693 78.17731193 210.88539575 73.26905009 210.88689232 68.36076355 C210.8866188 66.56618895 210.88465114 64.77161362 210.88079453 62.97704315 C210.86163866 53.59773158 210.98217019 44.33846459 212 35 C211.66258789 36.2269458 211.32517578 37.4538916 210.97753906 38.71801758 C207.78137939 50.02189328 203.85358515 60.61799412 198.88580322 71.25497437 C197.28675271 74.67962688 195.71785646 78.11787432 194.14639282 81.55525208 C193.32340762 83.35488131 192.49900033 85.15386088 191.67318726 86.95219421 C187.37822306 96.31509341 183.24616209 105.747145 179.125 115.1875 C177.62884843 118.60861835 176.13121199 122.02908441 174.6328125 125.44921875 C174.2570105 126.30706467 173.8812085 127.16491058 173.49401855 128.04875183 C168.62173851 139.15880528 163.67958899 150.23782414 158.74414062 161.31991577 C151.74244658 177.04454227 144.80208629 192.79531482 137.91015625 208.56835938 C134.0357792 217.42630743 130.08669386 226.23730847 126 235 C121.38 235 116.76 235 112 235 C103.56829173 216.92292848 95.39697112 198.74060833 87.32269287 180.50172424 C83.3944893 171.62872697 79.45195904 162.76210958 75.509552 153.89541626 C73.39527464 149.14009794 71.28160637 144.38450894 69.16796875 139.62890625 C68.74434555 138.67580063 68.32072235 137.72269501 67.88426208 136.7407074 C65.27272557 130.8647116 62.6621635 124.98828393 60.05244446 119.11148071 C58.74593363 116.16957482 57.43901114 113.22785203 56.13208008 110.28613281 C54.43333289 106.46213334 52.73676701 102.63717681 51.04174805 98.81152344 C47.41833791 90.6400004 43.77863629 82.47880033 40.03125 74.36328125 C39.43133125 73.05609419 38.83163278 71.74880602 38.23217773 70.44140625 C37.18070779 68.15612343 36.11912157 65.87544181 35.04321289 63.6015625 C30.82484619 54.40897469 28.81414822 46.13093358 26 36 C26 101.67 26 167.34 26 235 C17.42 235 8.84 235 0 235 C0 157.45 0 79.9 0 0 Z " fill="#1D1D1D" transform="translate(1714,805)"/>
<path d="M0 0 C88.44126074 0 88.44126074 0 106 8 C106.94617188 8.41894531 107.89234375 8.83789062 108.8671875 9.26953125 C123.78733044 16.60280264 134.15454298 29.16356775 139.95703125 44.53125 C146.01535595 64.68028495 145.09102296 87.94392206 135.4375 106.8125 C131.37943395 114.20741413 126.01563071 120.14793629 120 126 C119.39414062 126.60328125 118.78828125 127.2065625 118.1640625 127.828125 C93.98790123 150.23529886 58.04042466 147 28 147 C28 176.37 28 205.74 28 236 C18.76 236 9.52 236 0 236 C0 158.12 0 80.24 0 0 Z " fill="#1F1F1F" transform="translate(351,471)"/>
<path d="M0 0 C102.44522968 0 102.44522968 0 126.3828125 22.2109375 C139.69155349 35.79036475 143.50862398 53.66846342 143.35180664 72.17456055 C142.78429332 93.89520022 134.85913442 111.81951563 119.25 126.8125 C93.06763334 149.03896391 61.56394294 146 28 146 C28 175.37 28 204.74 28 235 C18.76 235 9.52 235 0 235 C0 157.45 0 79.9 0 0 Z " fill="#1E1E1E" transform="translate(2142,805)"/>
<path d="M0 0 C9.9 0 19.8 0 30 0 C30.80179688 2.12566406 31.60359375 4.25132813 32.4296875 6.44140625 C44.95946666 39.63482045 57.66918536 72.75911132 70.4125061 105.87103271 C75.49448255 119.07642409 80.56399524 132.28655698 85.625 145.5 C85.99174835 146.45737061 86.3584967 147.41474121 86.73635864 148.40112305 C91.15938559 159.94846681 95.57348621 171.49918474 99.97719574 183.0539093 C100.70342654 184.95929246 101.42983582 186.86460748 102.15631104 188.76989746 C102.39446785 189.39451118 102.63262466 190.01912491 102.87799835 190.66266632 C103.35652261 191.91768899 103.83505347 193.17270914 104.313591 194.42772675 C105.93866181 198.69015194 107.56153779 202.95340941 109.18408203 207.21679688 C110.03801776 209.45705724 110.89201842 211.69729285 111.74609375 213.9375 C112.32614922 215.46401184 112.32614922 215.46401184 112.91792297 217.0213623 C114.45721245 221.05503522 116.00378682 225.06184275 117.76586914 229.00390625 C119 232 119 232 119 235 C109.1 235 99.2 235 89 235 C85.74797694 227.19514465 82.58904605 219.42049017 79.64453125 211.50390625 C79.25682053 210.46733383 78.8691098 209.43076141 78.46965027 208.36277771 C77.24849184 205.09680151 76.0303588 201.82970786 74.8125 198.5625 C73.58333769 195.27052248 72.35353981 191.97878371 71.12321472 188.6872406 C70.36224717 186.65080831 69.60204902 184.6140883 68.84272766 182.57704163 C68.49864365 181.65515549 68.15455963 180.73326935 67.80004883 179.78344727 C67.49980301 178.97802994 67.19955719 178.17261261 66.89021301 177.3427887 C65.95589974 174.8839406 64.97689693 172.44224233 64 170 C31.33 169.67 -1.34 169.34 -35 169 C-35.99 172.3 -36.98 175.6 -38 179 C-38.5676532 180.73780817 -39.14628866 182.47215938 -39.74584961 184.19921875 C-40.05304428 185.08714111 -40.36023895 185.97506348 -40.67674255 186.88989258 C-41.15966515 188.27470825 -41.15966515 188.27470825 -41.65234375 189.6875 C-42.16445152 191.16222778 -42.16445152 191.16222778 -42.68690491 192.66674805 C-43.40439241 194.73099815 -44.12294821 196.79487721 -44.8425293 198.85839844 C-45.93415108 201.99039154 -47.02100164 205.12401185 -48.10742188 208.2578125 C-48.80960912 210.27614144 -49.51207387 212.29437386 -50.21484375 214.3125 C-50.53476791 215.23571045 -50.85469208 216.1589209 -51.18431091 217.11010742 C-51.49465775 217.99802979 -51.80500458 218.88595215 -52.12475586 219.80078125 C-52.39106308 220.56559814 -52.6573703 221.33041504 -52.93174744 222.1184082 C-54.53566173 226.44493775 -56.28630671 230.71576677 -58 235 C-67.9 235 -77.8 235 -88 235 C-87.15701606 229.94209635 -85.9102898 225.69905828 -84.0703125 220.984375 C-83.76867691 220.19770447 -83.46704132 219.41103394 -83.15626526 218.6005249 C-82.15091949 215.98170024 -81.13783098 213.36593784 -80.125 210.75 C-79.40535992 208.87850346 -78.68638074 207.00675267 -77.96801758 205.13476562 C-76.43749007 201.14703605 -74.90465314 197.16020472 -73.37060547 193.17382812 C-69.84372007 183.99917596 -66.3584799 174.80870546 -62.87124634 165.618927 C-61.27310753 161.40816145 -59.67322831 157.19805798 -58.07341003 152.9879303 C-54.84680628 144.4965156 -51.62185467 136.00447456 -48.39830017 127.51190186 C-46.41180749 122.27860054 -44.42476197 117.04550924 -42.4375 111.8125 C-42.04561493 110.78046448 -41.65372986 109.74842896 -41.24996948 108.68511963 C-35.07743 92.43269848 -28.86257546 76.19679271 -22.63357544 59.96594238 C-14.98077865 40.01769572 -7.4693951 20.0175382 0 0 Z " fill="#1E1E1E" transform="translate(1796,114)"/>
<path d="M0 0 C1.46179688 0.63615234 1.46179688 0.63615234 2.953125 1.28515625 C12.81343384 6.1210181 19.31618182 12.93347946 24.375 22.5625 C24.69686279 23.15595215 25.01872559 23.7494043 25.3503418 24.36083984 C32.89300101 39.82917615 31.3966348 58.13228288 31.29296875 74.8125 C31.28736314 77.48006941 31.28294971 80.14761451 31.28010559 82.81518555 C31.270855 89.07627275 31.24633812 95.33719907 31.21605712 101.59821606 C31.18229274 108.73748523 31.16597226 115.8767629 31.15097082 123.0160923 C31.1197805 137.67748775 31.06485824 152.33871127 31 167 C22.09 167 13.18 167 4 167 C3.67 159.08 3.34 151.16 3 143 C1.865625 144.65 0.73125 146.3 -0.4375 148 C-9.11893597 159.81766153 -21.18271893 168.6667205 -36 171 C-39.92096306 171.29326255 -43.81921727 171.33401832 -47.75 171.3125 C-48.81822998 171.30686035 -49.88645996 171.3012207 -50.98706055 171.29541016 C-65.19152549 171.07626237 -77.09223054 167.76573072 -87.75 157.9375 C-98.68714615 146.29346469 -101.6196976 133.64363072 -101.25 118.2265625 C-100.69932927 105.94109848 -96.11680676 93.49871816 -87 85 C-69.88266772 70.55030392 -48.61997263 67.64671354 -27.15307617 64.70751953 C-23.77969085 64.24550652 -20.40834972 63.77035998 -17.03710938 63.29296875 C-14.88552152 62.99143836 -12.7338323 62.6906302 -10.58203125 62.390625 C-9.57791702 62.25005676 -8.5738028 62.10948853 -7.53926086 61.96466064 C-6.60696152 61.83742615 -5.67466217 61.71019165 -4.71411133 61.57910156 C-3.89775711 61.46681213 -3.08140289 61.35452271 -2.24031067 61.23883057 C0 61 0 61 4 61 C2.38974226 43.31189327 2.38974226 43.31189327 -6 28 C-16.92732907 19.17735104 -28.53706744 19.01042135 -42 20 C-56.36557357 21.75596715 -70.48663647 28.31276668 -81.3984375 37.75 C-83 39 -83 39 -85 39 C-85 29.76 -85 20.52 -85 11 C-73.81262181 5.45331669 -63.10367452 1.0329052 -51 -2 C-50.33379639 -2.18546387 -49.66759277 -2.37092773 -48.98120117 -2.56201172 C-34.03913617 -6.40950336 -14.2178915 -6.30378891 0 0 Z " fill="#1E1E1E" transform="translate(606,539)"/>
<path d="M0 0 C15.77347955 12.11680185 23.58294139 29.86550975 26.7265625 49.14453125 C28.19500331 60.44379685 28.09765625 71.57638117 28.09765625 83 C-10.84234375 83 -49.78234375 83 -89.90234375 83 C-86.39775337 109.25590915 -86.39775337 109.25590915 -70.7734375 129.73046875 C-55.64772555 139.99321694 -38.2396338 142.06023037 -20.40234375 138.875 C-8.97036291 136.31595826 1.23844037 132.06700727 10.92578125 125.41796875 C13.09765625 124 13.09765625 124 16.09765625 123 C16.38911994 127.04013515 16.56595282 131.07757429 16.72265625 135.125 C16.80644531 136.26710938 16.89023438 137.40921875 16.9765625 138.5859375 C17.07534229 141.98396221 17.0272142 144.72549152 16.09765625 148 C13.14035184 150.9297573 9.91906789 152.43364437 6.09765625 154 C5.08316406 154.50789062 4.06867187 155.01578125 3.0234375 155.5390625 C-21.51191508 165.73462007 -50.03561533 168.18949644 -75.08984375 158.375 C-92.0443814 150.58662887 -104.9541364 136.34011368 -111.70019531 118.94238281 C-113.41356588 114.03704127 -114.739556 109.06154668 -115.90234375 104 C-116.14855469 102.93007813 -116.39476563 101.86015625 -116.6484375 100.7578125 C-121.60633229 73.33552546 -117.66762507 44.78341381 -102.90234375 21 C-100.41219956 17.49316972 -97.75494888 14.21700977 -94.90234375 11 C-94.34933594 10.36449219 -93.79632812 9.72898438 -93.2265625 9.07421875 C-88.49094124 3.97692713 -82.8916318 0.47362047 -76.90234375 -3 C-76.10957031 -3.46535156 -75.31679687 -3.93070313 -74.5 -4.41015625 C-51.27326809 -17.04766263 -21.61872313 -14.89742428 0 0 Z " fill="#1F1F1F" transform="translate(2468.90234375,189)"/>
<path d="M0 0 C0.64839844 0.44859375 1.29679687 0.8971875 1.96484375 1.359375 C17.8870233 13.63497828 23.58163713 33.19900419 27 52 C27 62.23 27 72.46 27 83 C-11.61 83 -50.22 83 -90 83 C-87.59791379 102.21668967 -84.73152518 117.85563459 -70 131 C-55.23994113 140.82627695 -37.39192697 141.86542231 -20.375 138.875 C-9.00392732 136.29176268 1.18688657 132.03536422 10.828125 125.41796875 C13 124 13 124 16 123 C17.78088802 145.27978085 17.78088802 145.27978085 14.0078125 151.04296875 C11.05202347 152.91496847 8.34165979 153.97303133 5 155 C3.97777344 155.45375 2.95554687 155.9075 1.90234375 156.375 C-6.15461267 159.88931061 -14.3808473 161.53879198 -23 163 C-23.89203125 163.18433594 -24.7840625 163.36867188 -25.703125 163.55859375 C-47.66262819 166.49866941 -70.33247131 163.80577089 -88.71582031 150.78466797 C-106.57904205 137.0539826 -114.16455673 115.83344586 -117.59375 94.265625 C-120.85977863 65.60026644 -115.85444897 37.8967806 -98.125 14.75 C-85.54587344 -0.30646889 -69.37647989 -9.53297751 -49.875 -11.67578125 C-31.82883715 -13.18569205 -15.06881731 -10.73925343 0 0 Z " fill="#1E1E1E" transform="translate(2297,508)"/>
<path d="M0 0 C17.79006437 13.42363903 24.45203432 32.71220591 28 54 C28 63.57 28 73.14 28 83 C-10.61 83 -49.22 83 -89 83 C-87.12595095 99.86644144 -85.10525767 116.95206673 -72 129 C-59.11308101 139.04203078 -43.54086662 142.36759757 -27.47265625 140.55859375 C-14.37787536 138.76004354 -2.34796957 134.87444811 9 128 C11.32855795 126.65817241 13.66433264 125.32944725 16 124 C17.7774138 146.23631667 17.7774138 146.23631667 14.04296875 152.04296875 C11.07249882 153.9435476 8.37544024 154.98459142 5 156 C3.89269531 156.45375 2.78539062 156.9075 1.64453125 157.375 C-11.29105069 162.51999982 -24.28328819 164.54323157 -38.13085938 164.50097656 C-40.36719507 164.5000034 -42.6000921 164.54182832 -44.8359375 164.5859375 C-62.36977828 164.732114 -80.32650375 159.01269674 -93.36328125 146.796875 C-111.49202804 126.89419356 -117.14605791 103.59439245 -117.25 77.375 C-117.270625 76.09753906 -117.29125 74.82007813 -117.3125 73.50390625 C-117.41286165 48.73966999 -107.8794894 25.37032018 -90.67089844 7.58056641 C-66.57684057 -15.21091966 -27.41219251 -18.03715138 0 0 Z " fill="#1E1E1E" transform="translate(1199,546)"/>
<path d="M0 0 C38.94 0 77.88 0 118 0 C118 8.25 118 16.5 118 25 C87.97 25 57.94 25 27 25 C27 50.74 27 76.48 27 103 C55.05 103 83.1 103 112 103 C112 111.25 112 119.5 112 128 C83.95 128 55.9 128 27 128 C27 155.06 27 182.12 27 210 C59.01 210 91.02 210 124 210 C124 218.25 124 226.5 124 235 C83.08 235 42.16 235 0 235 C0 157.45 0 79.9 0 0 Z " fill="#1D1D1D" transform="translate(1714,433)"/>
<path d="M0 0 C4.62 0 9.24 0 14 0 C14 308.88 14 617.76 14 936 C9.38 936 4.76 936 0 936 C0 627.12 0 318.24 0 0 Z " fill="#1D1D1D" transform="translate(1521,102)"/>
<path d="M0 0 C0.34057617 3.07275391 0.34057617 3.07275391 0.29296875 6.9765625 C0.28872391 7.66181 0.28447906 8.3470575 0.28010559 9.05307007 C0.26329753 11.24411129 0.22564405 13.43423632 0.1875 15.625 C0.17245579 17.10936173 0.15876693 18.59373785 0.14648438 20.078125 C0.1133879 23.71904833 0.06159207 27.35943478 0 31 C-1.16994507 30.29097534 -1.16994507 30.29097534 -2.36352539 29.56762695 C-21.33963029 18.24857247 -41.6736125 14.25948679 -63.4453125 19.0234375 C-72.0538205 21.38841223 -80.76963729 25.63004641 -85.50390625 33.5 C-90.63433756 43.55623004 -91.81846231 54.84752106 -88.80859375 65.890625 C-84.04396399 78.32009394 -74.40065901 85.55883636 -63.3125 92.1875 C-62.41329834 92.73575439 -61.51409668 93.28400879 -60.58764648 93.84887695 C-54.88972314 97.30884096 -49.14084109 100.67910516 -43.38330078 104.03857422 C-23.15026329 115.86598769 -0.19027191 129.29103067 7.48046875 152.99609375 C12.04359827 170.59673618 10.41192157 187.04121948 1.7578125 203.21875 C-8.77657419 219.88649072 -24.79505276 227.97168855 -43.46875 232.23828125 C-45.21671875 232.61533203 -45.21671875 232.61533203 -47 233 C-47.76997314 233.1757959 -48.53994629 233.3515918 -49.33325195 233.53271484 C-65.42997468 236.35328862 -83.4405282 234.83408503 -99 230 C-99.69319336 229.79149414 -100.38638672 229.58298828 -101.10058594 229.36816406 C-107.68707466 227.36570081 -113.81685383 225.09157309 -120 222 C-120 211.11 -120 200.22 -120 189 C-116.37 191.31 -112.74 193.62 -109 196 C-89.12443049 206.67131184 -65.43012768 212.25633017 -43.125 206.375 C-35.5833252 203.78226499 -28.40841138 200.06143955 -23.99609375 193.17578125 C-19.38629547 183.10653559 -18.44339894 171.98485565 -21.98046875 161.53515625 C-29.7347608 142.25341087 -50.73102314 131.93412431 -67.93383789 122.11010742 C-90.84846899 108.95468098 -111.76257803 94.20911273 -119.41552734 67.63232422 C-120.38437745 63.26885647 -120.44639426 59.01643493 -120.375 54.5625 C-120.36484863 53.64090088 -120.35469727 52.71930176 -120.34423828 51.76977539 C-120.19280947 45.12979816 -119.58113594 39.17908302 -117 33 C-116.5978125 32.0203125 -116.195625 31.040625 -115.78125 30.03125 C-108.48137727 13.97152999 -94.34493343 2.26151238 -78 -4 C-55.44848657 -11.30683882 -20.74424429 -13.82949619 0 0 Z " fill="#1E1E1E" transform="translate(2111,810)"/>
<path d="M0 0 C5.67152758 4.68230765 9.38191618 9.69968154 12.6640625 16.25390625 C13.04304687 17.00027344 13.42203125 17.74664062 13.8125 18.515625 C23.5247275 40.02127161 21.79994897 68.69096238 13.6640625 90.25390625 C9.01051364 101.11218692 0.59041243 110.56700011 -10.3359375 115.25390625 C-26.4722251 120.75882313 -43.83422813 121.70076103 -59.4609375 114.12890625 C-73.50190858 106.88861603 -80.75500503 96.22229216 -86.29296875 81.6875 C-89.00478495 72.75983543 -89.69352122 64.31924843 -89.6484375 55.00390625 C-89.64352295 53.80822021 -89.6386084 52.61253418 -89.63354492 51.38061523 C-89.39923795 33.742707 -85.20717194 17.79127886 -73.3359375 4.25390625 C-53.67580237 -14.88370037 -21.87924874 -16.3545555 0 0 Z " fill="#FEFEFE" transform="translate(774.3359375,247.74609375)"/>
<path d="M0 0 C0.76441406 0.26683594 1.52882813 0.53367188 2.31640625 0.80859375 C13.99730747 5.37938118 22.30114877 14.14264259 27.6875 25.25 C37.29166999 47.51561597 36.4665049 75.5608017 28 98 C23.34645114 108.85828067 14.92634993 118.31309386 4 123 C-12.1362876 128.50491688 -29.49829063 129.44685478 -45.125 121.875 C-58.93381024 114.75442457 -67.21508147 103.6656982 -72 89 C-74.48417362 80.19145654 -75.52158732 71.88903389 -75.4375 62.75 C-75.42505249 60.98619995 -75.42505249 60.98619995 -75.41235352 59.18676758 C-75.08363602 42.13908034 -71.17374796 24.44401673 -58.92578125 11.734375 C-43.03993943 -2.57254948 -20.20221548 -7.56355231 0 0 Z " fill="#FEFEFE" transform="translate(1066,240)"/>
<path d="M0 0 C13.33570991 9.94663476 20.52159377 23.82549354 23.05297852 40.0949707 C24.68199691 51.85717127 24.24648608 63.77618658 24.1953125 75.62109375 C24.19157565 78.17798247 24.18873186 80.73487263 24.18673706 83.29176331 C24.1799253 89.29431182 24.16422207 95.29677107 24.14403808 101.29928404 C24.12153286 108.14350561 24.11064923 114.98773111 24.10064721 121.83198059 C24.07985058 135.88803565 24.04323389 149.94399696 24 164 C15.09 164 6.18 164 -3 164 C-3.0093457 160.72126953 -3.01869141 157.44253906 -3.02832031 154.06445312 C-3.06222609 143.17991852 -3.11785015 132.29557079 -3.18390274 121.41118622 C-3.22325786 114.8178972 -3.25550492 108.22473936 -3.27099609 101.63134766 C-3.28624156 95.2574705 -3.32082646 88.88395426 -3.36830902 82.51023865 C-3.38304176 80.08966729 -3.39103631 77.66904439 -3.39188385 75.24842834 C-3.28647354 51.48915863 -3.28647354 51.48915863 -11.94921875 29.69921875 C-13 28 -13 28 -14 25 C-15.84757108 23.9144086 -15.84757108 23.9144086 -18 23 C-19.95355802 21.76617388 -21.87982673 20.49679521 -23.8046875 19.21875 C-29.34858729 16.1409978 -34.48516744 15.61193145 -40.6875 15.625 C-41.48188477 15.62661133 -42.27626953 15.62822266 -43.09472656 15.62988281 C-52.19294433 15.81858111 -59.76699715 18.37433112 -67 24 C-67.63550781 24.48082031 -68.27101563 24.96164062 -68.92578125 25.45703125 C-80.45081171 34.72480527 -84.88785525 48.21714564 -86.58953857 62.47610474 C-87.50135011 71.43463211 -87.36355788 80.46999099 -87.4140625 89.46484375 C-87.43281282 91.5957562 -87.45238898 93.72666152 -87.4727478 95.8575592 C-87.52366728 101.41563684 -87.56350581 106.97373844 -87.60089111 112.53192139 C-87.64118535 118.22381319 -87.69216057 123.91560877 -87.7421875 129.60742188 C-87.83846984 140.73821976 -87.92203492 151.86905873 -88 163 C-96.58 163 -105.16 163 -114 163 C-114 107.89 -114 52.78 -114 -4 C-105.09 -4 -96.18 -4 -87 -4 C-86.67 4.25 -86.34 12.5 -86 21 C-84.824375 19.494375 -83.64875 17.98875 -82.4375 16.4375 C-62.90540294 -7.80688621 -27.76139702 -17.76729409 0 0 Z " fill="#1E1E1E" transform="translate(1025,543)"/>
<path d="M0 0 C8.91 0 17.82 0 27 0 C27.01458252 3.22861816 27.02916504 6.45723633 27.04418945 9.78369141 C27.0946954 20.49260058 27.16131827 31.20136678 27.23571491 41.91013527 C27.28029967 48.39808517 27.3195818 54.885974 27.34643555 61.37402344 C27.37258739 67.64410355 27.41307312 73.9139471 27.46318626 80.18387985 C27.47977492 82.567031 27.4913387 84.95022299 27.49761391 87.33342361 C27.24915893 109.10943584 27.24915893 109.10943584 33.9375 129.5625 C34.66259766 130.95662109 34.66259766 130.95662109 35.40234375 132.37890625 C40.25680775 140.34307579 45.81555576 144.32161437 54.75 146.8125 C66.93382535 149.49447413 78.27599671 148.39627524 89.25 142.3125 C100.8259752 134.82108567 107.09892246 122.23472174 110 109 C110.91477321 101.93803884 111.15863212 94.86820513 111.20532227 87.75512695 C111.21522186 86.79767075 111.22512146 85.84021454 111.23532104 84.85374451 C111.26656439 81.73194739 111.29154424 78.61013513 111.31640625 75.48828125 C111.337008 73.30681493 111.35800524 71.12535232 111.37937927 68.94389343 C111.43426761 63.23449728 111.48382186 57.52506711 111.53222656 51.81561279 C111.58268607 45.9766542 111.63824382 40.1377443 111.69335938 34.29882812 C111.8005337 22.86592568 111.9015953 11.4329813 112 0 C120.58 0 129.16 0 138 0 C138 55.44 138 110.88 138 168 C129.42 168 120.84 168 112 168 C111.505 155.13 111.505 155.13 111 142 C108.69 145.3 106.38 148.6 104 152 C95.26072804 163.21265081 82.93321654 169.40201956 69 172 C52.26658042 173.64982472 35.42492037 171.52489799 21.70703125 161.2890625 C7.76474908 149.84564832 2.31999807 132.73862253 0.20869637 115.35977173 C-0.19288509 110.81900953 -0.12945832 106.27389515 -0.11352539 101.71875 C-0.11367142 100.61542831 -0.11381744 99.51210663 -0.1139679 98.37535095 C-0.11327456 94.75021355 -0.10550933 91.12512836 -0.09765625 87.5 C-0.09579001 84.97794625 -0.09436708 82.45589213 -0.09336853 79.93383789 C-0.08994828 73.98775504 -0.08207711 68.04168878 -0.07201904 62.09561443 C-0.06081125 55.32167889 -0.05533573 48.54774242 -0.05032361 41.7737999 C-0.03989313 27.8491878 -0.02156641 13.92459908 0 0 Z " fill="#1E1E1E" transform="translate(2083,181)"/>
<path d="M0 0 C10.60180285 7.79488546 16.54748259 21.89407536 18.59765625 34.5703125 C21.10310282 58.19628306 19.69219112 84.79637112 4.5390625 104.328125 C-3.72061975 113.83311318 -13.13267807 119.71477006 -25.859375 120.8671875 C-26.56578125 120.91101563 -27.2721875 120.95484375 -28 121 C-29.21429687 121.09667969 -29.21429687 121.09667969 -30.453125 121.1953125 C-41.40374842 121.675603 -52.25163781 118.66933965 -61 112 C-62.010625 111.278125 -63.02125 110.55625 -64.0625 109.8125 C-73.70166618 101.40777745 -79.0429311 88.36144875 -80.20301819 75.80207825 C-80.29331855 73.58352348 -80.32940451 71.3727165 -80.3359375 69.15234375 C-80.3425943 68.3373793 -80.3492511 67.52241486 -80.35610962 66.68275452 C-80.36616496 64.96764352 -80.37092887 63.25249396 -80.37060547 61.53735352 C-80.37494917 58.96757202 -80.41126199 56.39955367 -80.44921875 53.83007812 C-80.57788887 34.99594657 -76.86503759 18.33585472 -63.46484375 4.2890625 C-45.69898149 -12.20982068 -19.85714941 -13.35063368 0 0 Z " fill="#FEFEFE" transform="translate(2122,528)"/>
<path d="M0 0 C42.24 0 84.48 0 128 0 C128 10.12244898 128 10.12244898 125.61328125 13.18359375 C125.09378906 13.87388672 124.57429688 14.56417969 124.0390625 15.27539062 C123.18441406 16.34563477 123.18441406 16.34563477 122.3125 17.4375 C121.11011242 19.01910213 119.90830555 20.60114588 118.70703125 22.18359375 C118.08908691 22.98265137 117.47114258 23.78170898 116.83447266 24.60498047 C113.97156987 28.34268027 111.24014163 32.17193494 108.5 36 C107.42128165 37.4953032 106.34185184 38.99009341 105.26171875 40.484375 C104.72595215 41.22623047 104.19018555 41.96808594 103.63818359 42.73242188 C101.97426906 45.03561684 100.30949593 47.33818908 98.64453125 49.640625 C93.74654666 56.41540742 88.85255912 63.19258102 84 70 C77.48260504 79.14293615 70.89322028 88.23392586 64.31347656 97.33203125 C53.11264205 112.8218547 42.02418001 128.38241165 31 144 C62.68 144.33 94.36 144.66 127 145 C127 152.59 127 160.18 127 168 C81.79 168 36.58 168 -10 168 C-10 157.87755102 -10 157.87755102 -7.61328125 154.81640625 C-7.09378906 154.12611328 -6.57429688 153.43582031 -6.0390625 152.72460938 C-5.46929688 152.01111328 -4.89953125 151.29761719 -4.3125 150.5625 C-3.11011242 148.98089787 -1.90830555 147.39885412 -0.70703125 145.81640625 C-0.08908691 145.01734863 0.52885742 144.21829102 1.16552734 143.39501953 C4.02843132 139.65731818 6.75981977 135.82803891 9.5 132 C10.58263702 130.49949736 11.66597241 128.99949835 12.75 127.5 C13.28625 126.7575 13.8225 126.015 14.375 125.25 C58.25 64.5 58.25 64.5 59.87646484 62.24804688 C60.95501053 60.75462602 62.03346173 59.26113692 63.11181641 57.76757812 C65.8926124 53.91633964 68.67525899 50.06645867 71.4609375 46.21875 C72.03263672 45.42855469 72.60433594 44.63835937 73.19335938 43.82421875 C74.26955898 42.3367884 75.34632784 40.84976966 76.42382812 39.36328125 C80.34134321 33.94684664 84.16518547 28.47830647 88 23 C58.96 23 29.92 23 0 23 C0 15.41 0 7.82 0 0 Z " fill="#1E1E1E" transform="translate(1929,181)"/>
<path d="M0 0 C10.23 0 20.46 0 31 0 C37.7504014 11.92570913 44.49091424 23.85648685 51.1875 35.8125 C51.77007568 36.85156494 52.35265137 37.89062988 52.95288086 38.96118164 C55.65566134 43.78738515 58.34588677 48.61949666 61 53.47265625 C61.45737549 54.30627686 61.91475098 55.13989746 62.38598633 55.9987793 C63.22627999 57.53293391 64.0623671 59.06940355 64.89331055 60.60864258 C66.65752957 63.82629154 68.32687703 66.49243513 71 69 C71.3717334 68.36199463 71.7434668 67.72398926 72.12646484 67.06665039 C78.93988229 55.37465807 85.75588815 43.68442432 92.62890625 32.02734375 C94.2891921 29.21087384 95.94167962 26.3899862 97.58984375 23.56640625 C98.02458008 22.82318115 98.45931641 22.07995605 98.90722656 21.31420898 C99.71943569 19.92536855 100.53016205 18.53565906 101.33886719 17.14477539 C102.11005704 15.82784833 102.89913289 14.52125739 103.7043457 13.22485352 C105.09230016 10.92700518 105.09230016 10.92700518 106.33276367 8.07006836 C107.96443586 4.84281029 109.37346983 2.49725714 112 0 C117.00810507 -1.33847903 121.81765929 -1.04838346 126.9375 -0.6875 C128.30253678 -0.63225044 129.66778882 -0.58207272 131.03320312 -0.53710938 C134.36098392 -0.407761 137.67771305 -0.22733612 141 0 C139.7802672 3.26122126 138.43837433 6.08061086 136.48046875 8.95703125 C135.96379639 9.72297607 135.44712402 10.4889209 134.91479492 11.27807617 C134.3447876 12.11443604 133.77478027 12.9507959 133.1875 13.8125 C131.91545625 15.69970553 130.64470746 17.58778432 129.375 19.4765625 C128.67761719 20.51329102 127.98023438 21.55001953 127.26171875 22.61816406 C122.11124732 30.3014036 117.05967463 38.05129912 112.00439453 45.79736328 C108.06819957 51.82470375 104.12542237 57.84380174 100.07261658 63.79362488 C98.44258079 66.18819541 96.82527363 68.59122385 95.20889282 70.99502563 C94.08596812 72.6528529 92.94391768 74.29767395 91.80151367 75.94213867 C91.13611572 76.9344751 90.47071777 77.92681152 89.78515625 78.94921875 C88.90162476 80.23832153 88.90162476 80.23832153 88.00024414 81.5534668 C86.70719451 83.96644449 86.70719451 83.96644449 87.76683044 86.37986755 C88.93800979 88.86828855 90.21274299 91.07803779 91.73046875 93.36865234 C92.27864258 94.2007724 92.82681641 95.03289246 93.39160156 95.89022827 C93.98424805 96.77981232 94.57689453 97.66939636 95.1875 98.5859375 C95.80463867 99.51991364 96.42177734 100.45388977 97.05761719 101.41616821 C99.03418858 104.40526568 101.01701395 107.39015521 103 110.375 C104.30379401 112.3447817 105.60718353 114.31483119 106.91015625 116.28515625 C110.59982512 121.86139459 114.29789535 127.43201163 118 133 C118.5027948 133.75626678 119.0055896 134.51253357 119.52362061 135.29171753 C123.53142657 141.31746462 127.54618954 147.33813907 131.6015625 153.33203125 C132.11074219 154.08677734 132.61992188 154.84152344 133.14453125 155.61914062 C134.16728713 157.13438449 135.19355527 158.64726146 136.22265625 160.15820312 C136.71894531 160.89619141 137.21523437 161.63417969 137.7265625 162.39453125 C138.16564941 163.04268799 138.60473633 163.69084473 139.05712891 164.35864258 C140 166 140 166 140 168 C129.78438169 169.6888103 119.04549806 171.11634258 109 168 C102.33972151 162.7030671 99.0920939 154.51237232 95.71969604 146.88716125 C92.72936668 140.15296805 88.92442988 134.01738131 85.00238037 127.79382324 C80.12401579 120.03164821 75.45281829 112.18767052 71.23095703 104.046875 C70.16399113 101.85865496 70.16399113 101.85865496 68 101 C67.60844727 102.05707153 67.60844727 102.05707153 67.20898438 103.13549805 C65.91082278 106.21129166 64.36185357 108.962238 62.65625 111.83203125 C61.99206055 112.95222656 61.32787109 114.07242188 60.64355469 115.2265625 C59.92928729 116.4220249 59.21476383 117.61733434 58.5 118.8125 C57.76718018 120.04292562 57.0344332 121.27339462 56.30175781 122.50390625 C46.86019674 138.3334234 46.86019674 138.3334234 43.54394531 143.30981445 C41.21429696 146.83319433 39.41174276 150.28454346 37.78125 154.1875 C32.98357778 164.71455239 32.98357778 164.71455239 28 168 C18.25327333 170.33103725 7.8483341 169.15835168 -2 168 C-0.75532769 164.63165366 0.64280466 161.82798618 2.73046875 158.91015625 C3.27856201 158.13704102 3.82665527 157.36392578 4.39135742 156.56738281 C4.98408447 155.74077148 5.57681152 154.91416016 6.1875 154.0625 C7.45955364 152.26779139 8.73034262 150.47218588 10 148.67578125 C10.65871094 147.74459473 11.31742188 146.8134082 11.99609375 145.85400391 C15.27427945 141.18514538 18.48187751 136.46885095 21.6875 131.75 C22.94657015 129.89840728 24.2056839 128.04684422 25.46484375 126.1953125 C26.06409668 125.31391602 26.66334961 124.43251953 27.28076172 123.52441406 C29.76001746 119.88404139 32.25307772 116.25326953 34.75 112.625 C35.18199707 111.99658203 35.61399414 111.36816406 36.05908203 110.72070312 C38.38255394 107.34269877 40.71349583 103.97002493 43.05078125 100.6015625 C43.55448242 99.87372559 44.05818359 99.14588867 44.57714844 98.39599609 C45.5404817 97.00419803 46.50585485 95.6138088 47.47363281 94.22509766 C48.66859243 92.49672158 49.83586319 90.74928495 51 89 C51.43513916 88.37843018 51.87027832 87.75686035 52.31860352 87.11645508 C53.28230538 84.91789895 53.28230538 84.91789895 51.94873047 82.55249023 C51.34432129 81.64700439 50.73991211 80.74151855 50.1171875 79.80859375 C49.45058105 78.79128174 48.78397461 77.77396973 48.09716797 76.72583008 C47.36385254 75.64068115 46.63053711 74.55553223 45.875 73.4375 C45.12605345 72.30410893 44.37883336 71.16957521 43.63330078 70.03393555 C42.13170638 67.74911526 40.6232723 65.46906806 39.109375 63.19238281 C36.29912552 58.9392784 33.57951637 54.63328353 30.875 50.3125 C29.91596742 48.78998469 28.9563263 47.26785254 27.99609375 45.74609375 C27.51382324 44.98151855 27.03155273 44.21694336 26.53466797 43.42919922 C23.67707557 38.90596595 20.80819462 34.3899258 17.9375 29.875 C17.35452148 28.95726807 16.77154297 28.03953613 16.17089844 27.09399414 C13.36139089 22.67888526 10.53553276 18.27609841 7.66796875 13.8984375 C7.15306885 13.11098145 6.63816895 12.32352539 6.10766602 11.51220703 C5.14220339 10.03913331 4.17283147 8.56861198 3.19897461 7.10107422 C0 2.22025223 0 2.22025223 0 0 Z " fill="#1E1E1E" transform="translate(1854,500)"/>
<path d="M0 0 C0.96421875 -0.020625 1.9284375 -0.04125 2.921875 -0.0625 C3.870625 -0.06765625 4.819375 -0.0728125 5.796875 -0.078125 C6.65120117 -0.0874707 7.50552734 -0.09681641 8.38574219 -0.10644531 C11.25 0.25 11.25 0.25 19.25 3.25 C19.25 11.17 19.25 19.09 19.25 27.25 C17.538125 26.755 15.82625 26.26 14.0625 25.75 C4.7044942 23.4463213 -4.66784896 22.69622504 -13.59765625 26.87890625 C-20.37261594 31.19471542 -22.69234853 37.94929227 -24.90283203 45.36499023 C-26.5028624 52.70253585 -26.43084982 60.07911007 -26.5 67.5625 C-26.5825 73.069375 -26.665 78.57625 -26.75 84.25 C-13.88 84.25 -1.01 84.25 12.25 84.25 C12.25 91.84 12.25 99.43 12.25 107.25 C-0.62 107.25 -13.49 107.25 -26.75 107.25 C-26.75 155.1 -26.75 202.95 -26.75 252.25 C-35.66 252.25 -44.57 252.25 -53.75 252.25 C-53.75 204.4 -53.75 156.55 -53.75 107.25 C-62.99 107.25 -72.23 107.25 -81.75 107.25 C-81.75 99.66 -81.75 92.07 -81.75 84.25 C-72.51 84.25 -63.27 84.25 -53.75 84.25 C-53.80220703 80.70378906 -53.80220703 80.70378906 -53.85546875 77.0859375 C-53.87899674 74.74578046 -53.89713742 72.40563757 -53.91479492 70.06542969 C-53.92969902 68.46347973 -53.95002947 66.8615692 -53.97631836 65.25976562 C-54.27792113 46.38298058 -51.69909728 28.46329988 -37.9765625 14.2109375 C-26.806357 4.37331792 -14.59819665 0.07683261 0 0 Z " fill="#1E1E1E" transform="translate(1217.75,133.75)"/>
<path d="M0 0 C0 8.91 0 17.82 0 27 C-3.73176154 25.50729538 -6.99199801 23.95624283 -10.5 22.0625 C-22.84953907 15.89526986 -37.61297076 13.2421233 -51 17.625 C-56.94510135 20.13751307 -61.06482723 23.44057794 -64.9375 28.5625 C-67.2303235 35.98045837 -67.13327776 43.49144325 -63.8125 50.5625 C-60.48707501 56.82274451 -55.06931835 59.69014974 -48.875 62.6875 C-47.84088989 63.1990564 -47.84088989 63.1990564 -46.78588867 63.72094727 C-42.94524695 65.60934491 -39.07905148 67.43067997 -35.18359375 69.203125 C-17.37503472 77.33897867 -1.80570641 86.09344469 6 105 C9.15410835 115.85922366 8.12426602 130.02495406 3 140 C-5.48314476 154.05724651 -16.48635783 161.69101011 -32.375 165.8125 C-51.30409906 170.21151598 -72.17427323 169.12160416 -90 161 C-90.86302734 160.61996826 -91.72605469 160.23993652 -92.61523438 159.84838867 C-95 158 -95 158 -95.56762695 154.99731445 C-95.54144287 153.7980835 -95.51525879 152.59885254 -95.48828125 151.36328125 C-95.47216797 150.06455078 -95.45605469 148.76582031 -95.43945312 147.42773438 C-95.39767609 146.05597301 -95.35535135 144.68422823 -95.3125 143.3125 C-95.28741745 141.92907618 -95.26460418 140.54560923 -95.24414062 139.16210938 C-95.18510827 135.77365236 -95.10280082 132.38736615 -95 129 C-94.2675708 129.4734082 -93.5351416 129.94681641 -92.78051758 130.43457031 C-91.80751709 131.05944336 -90.8345166 131.68431641 -89.83203125 132.328125 C-88.87272705 132.9459082 -87.91342285 133.56369141 -86.92504883 134.20019531 C-72.75494172 142.91916949 -55.69017105 146.59390289 -39.2734375 143.23828125 C-32.97932876 141.44097932 -27.51325297 139.63665544 -23.63671875 134.02734375 C-20.6008914 127.34352634 -19.69054234 120.95165778 -21.58984375 113.76953125 C-26.77650607 101.41236804 -43.34424605 95.6037978 -54.73046875 90.328125 C-75.3290023 80.77229268 -75.3290023 80.77229268 -82 74 C-82.87591797 73.12601563 -82.87591797 73.12601563 -83.76953125 72.234375 C-92.36565129 62.94805555 -95.67222613 50.48646742 -95.28125 38.0078125 C-94.12539269 25.64656076 -89.46099056 15.48377017 -80.38671875 6.9453125 C-57.4419424 -11.75599458 -25.92370259 -12.96185129 0 0 Z " fill="#1E1E1E" transform="translate(938,222)"/>
<path d="M0 0 C0 16.17 0 32.34 0 49 C13.86 49 27.72 49 42 49 C42 56.59 42 64.18 42 72 C28.14 72 14.28 72 0 72 C0.04039712 85.63089294 0.09757725 99.26143651 0.18390274 112.8921175 C0.22332923 119.22211523 0.25554159 125.55197483 0.27099609 131.88208008 C0.28619417 137.99658904 0.32069643 144.11071817 0.36830902 150.2250576 C0.3830902 152.55207191 0.39103913 154.87914045 0.39188385 157.20620155 C0.39426501 160.47812523 0.42143839 163.74900894 0.45410156 167.02075195 C0.4490712 167.9723822 0.44404083 168.92401245 0.43885803 169.90447998 C0.56320342 178.01096223 2.31756218 185.62975761 7.4375 192.0625 C13.30050109 196.49550083 19.81375573 197.0874239 27 197 C32.41325746 196.054393 37.08952969 194.45523515 42 192 C42 199.59 42 207.18 42 215 C27.20309416 222.39845292 11.8625947 223.19602916 -4 218 C-14.09514804 213.18492939 -19.90379342 205.30651209 -23.95703125 195.125 C-26.5212419 187.44197184 -27.28400333 180.87770802 -27.22705078 172.81054688 C-27.22734283 171.71697876 -27.22763489 170.62341064 -27.22793579 169.4967041 C-27.22654922 165.90397031 -27.21101956 162.31144729 -27.1953125 158.71875 C-27.19157998 156.21911736 -27.18873414 153.71948326 -27.18673706 151.21984863 C-27.17989684 145.32686191 -27.16415494 139.43395226 -27.14403808 133.54099703 C-27.11941931 126.16796971 -27.10873294 118.79493294 -27.09765625 111.421875 C-27.07623931 98.28120459 -27.04107235 85.14062369 -27 72 C-36.57 72 -46.14 72 -56 72 C-56 64.41 -56 56.82 -56 49 C-46.43 49 -36.86 49 -27 49 C-27 35.47 -27 21.94 -27 8 C-21.1528125 6.02 -21.1528125 6.02 -15.1875 4 C-13.96184326 3.58234375 -12.73618652 3.1646875 -11.47338867 2.734375 C-10.5063501 2.40953125 -9.53931152 2.0846875 -8.54296875 1.75 C-7.55321045 1.41484375 -6.56345215 1.0796875 -5.54370117 0.734375 C-3 0 -3 0 0 0 Z " fill="#1E1E1E" transform="translate(2508,451)"/>
<path d="M0 0 C0 16.5 0 33 0 50 C13.86 50 27.72 50 42 50 C42 57.59 42 65.18 42 73 C28.14 73 14.28 73 0 73 C0.06301082 86.51773526 0.13850038 100.03524483 0.23571491 113.55277824 C0.28036597 119.83009421 0.31963389 126.10734606 0.34643555 132.38476562 C0.37252075 138.44734972 0.41296052 144.50968638 0.46318626 150.57211685 C0.47981964 152.88042234 0.49135582 155.1887706 0.49761391 157.49712753 C0.50729323 160.74037114 0.53539909 163.98298673 0.56762695 167.22607422 C0.56619186 168.17194901 0.56475677 169.11782379 0.5632782 170.09236145 C0.67169017 177.8503481 2.15629479 185.17949399 6 192 C11.48488442 197.18016862 18.6839719 197.77524914 26 198 C31.75134217 197.19611922 36.84361655 195.63764115 42 193 C42.14496508 196.77043032 42.23395607 200.54014742 42.3125 204.3125 C42.35439453 205.38435547 42.39628906 206.45621094 42.43945312 207.56054688 C42.45556641 208.58857422 42.47167969 209.61660156 42.48828125 210.67578125 C42.51446533 211.62364502 42.54064941 212.57150879 42.56762695 213.5480957 C42 216 42 216 39.65795898 217.76000977 C32.19377826 221.24219714 25.4052545 221.36571156 17.25 221.375 C16.13367187 221.39949219 15.01734375 221.42398438 13.8671875 221.44921875 C2.79183991 221.48794374 -6.83761036 218.73184601 -15 211 C-25.20249083 200.22938903 -27.33136798 185.12382504 -27.22705078 170.85888672 C-27.22734283 169.79428726 -27.22763489 168.72968781 -27.22793579 167.63282776 C-27.22655338 164.1483619 -27.21104373 160.66411555 -27.1953125 157.1796875 C-27.1915785 154.75017412 -27.18873335 152.32065923 -27.18673706 149.8911438 C-27.17913113 143.52241803 -27.15950887 137.15378468 -27.1373291 130.78509521 C-27.11680502 124.27601369 -27.10772134 117.76691711 -27.09765625 111.2578125 C-27.07625999 98.50516137 -27.04110275 85.75260286 -27 73 C-36.57 73 -46.14 73 -56 73 C-56 65.41 -56 57.82 -56 50 C-46.43 50 -36.86 50 -27 50 C-27 36.47 -27 22.94 -27 9 C-22.730625 7.515 -18.46125 6.03 -14.0625 4.5 C-12.71422119 4.03013672 -11.36594238 3.56027344 -9.97680664 3.07617188 C-8.92356201 2.71072266 -7.87031738 2.34527344 -6.78515625 1.96875 C-5.70113525 1.59169922 -4.61711426 1.21464844 -3.50024414 0.82617188 C-1 0 -1 0 0 0 Z " fill="#1E1E1E" transform="translate(1292,168)"/>
<path d="M0 0 C0 16.5 0 33 0 50 C13.86 50 27.72 50 42 50 C42 57.59 42 65.18 42 73 C28.14 73 14.28 73 0 73 C0.06306985 86.09204615 0.13860922 99.1838608 0.23571491 112.27569962 C0.28032126 118.35566109 0.31959876 124.43555706 0.34643555 130.515625 C0.37256569 136.39018983 0.4130365 142.26450124 0.46318626 148.13890839 C0.47978946 150.37299177 0.49134429 152.60711891 0.49761391 154.84125519 C-0.28688614 175.23004719 -0.28688614 175.23004719 8 193 C14.91498157 197.86496491 22.84098805 197.93864739 31 197 C34.8814913 195.94800703 38.29362828 194.60275534 42 193 C42 200.59 42 208.18 42 216 C32.59912608 220.17816619 26.64683469 221.193688 16.75 221.25 C15.41388672 221.2809375 15.41388672 221.2809375 14.05078125 221.3125 C3.48648683 221.37383117 -6.0561747 218.54757028 -13.875 211.25 C-28.61175063 195.49692174 -27.43551224 174.42120061 -27.29296875 154.25 C-27.2873612 151.89632439 -27.2830966 149.54264523 -27.28010559 147.18896484 C-27.268748 141.04713979 -27.23936069 134.90553358 -27.20599365 128.76379395 C-27.17509507 122.47537189 -27.16155829 116.18691387 -27.14648438 109.8984375 C-27.1144809 97.59884759 -27.0617889 85.29947638 -27 73 C-36.24 73 -45.48 73 -55 73 C-55 65.41 -55 57.82 -55 50 C-45.76 50 -36.52 50 -27 50 C-27 36.47 -27 22.94 -27 9 C-20.79730888 6.51892355 -14.79448954 4.18077619 -8.4375 2.25 C-7.72787109 2.02957031 -7.01824219 1.80914062 -6.28710938 1.58203125 C-1.15287752 0 -1.15287752 0 0 0 Z " fill="#1E1E1E" transform="translate(838,489)"/>
<path d="M0 0 C0 9.24 0 18.48 0 28 C-4.02785022 26.38885991 -7.52677206 24.63108224 -11.3125 22.5625 C-25.27667784 15.33887762 -42.0421855 13.72879495 -57.1640625 18.03515625 C-73.20631684 23.49305821 -83.77515268 34.25608127 -91.25 49.1875 C-99.60399084 68.37487469 -99.60306487 91.37229576 -92.28466797 110.90966797 C-86.55438398 125.04141281 -77.68676387 134.37784636 -63.89453125 140.47265625 C-47.5712914 147.14657349 -29.99123422 144.12810934 -14 138 C-8.88615841 135.78256953 -4.68729643 133.12486429 0 130 C0 138.58 0 147.16 0 156 C-9.92491686 161.37599663 -18.97485231 164.70874026 -30 167 C-30.78632813 167.19335938 -31.57265625 167.38671875 -32.3828125 167.5859375 C-53.65908142 170.95203378 -75.24148555 165.9533962 -93 154 C-93.81082031 153.46117187 -94.62164062 152.92234375 -95.45703125 152.3671875 C-108.05719499 143.19982427 -115.93247818 129.47711716 -121 115 C-121.433125 113.77925781 -121.86625 112.55851562 -122.3125 111.30078125 C-129.85904564 86.93818871 -126.29784783 57.21445924 -114.91455078 34.70996094 C-104.95808442 16.09407988 -88.04493972 2.24367949 -68.10546875 -4.35546875 C-46.43013459 -10.74957691 -20.53047707 -10.26523853 0 0 Z " fill="#1E1E1E" transform="translate(535,222)"/>
<path d="M0 0 C28.71 0 57.42 0 87 0 C87 29.04 87 58.08 87 88 C58.29 88 29.58 88 0 88 C0 58.96 0 29.92 0 0 Z " fill="#FAB902" transform="translate(575,951)"/>
<path d="M0 0 C28.71 0 57.42 0 87 0 C87 29.04 87 58.08 87 88 C58.29 88 29.58 88 0 88 C0 58.96 0 29.92 0 0 Z " fill="#34A0DA" transform="translate(479,951)"/>
<path d="M0 0 C28.71 0 57.42 0 87 0 C87 28.71 87 57.42 87 87 C58.29 87 29.58 87 0 87 C0 58.29 0 29.58 0 0 Z " fill="#81B629" transform="translate(575,855)"/>
<path d="M0 0 C28.71 0 57.42 0 87 0 C87 28.71 87 57.42 87 87 C58.29 87 29.58 87 0 87 C0 58.29 0 29.58 0 0 Z " fill="#E64516" transform="translate(479,855)"/>
<path d="M0 0 C9.24 0 18.48 0 28 0 C38.34097636 26.66370997 48.68175675 53.3274829 59 80 C61.33094499 76.50358251 62.83024694 72.83491946 64.421875 68.96875 C64.92736626 67.75082008 64.92736626 67.75082008 65.44306946 66.50828552 C66.54891036 63.84030286 67.64966188 61.17025637 68.75 58.5 C69.5109474 56.65957049 70.27193409 54.81915723 71.03295898 52.97875977 C78.1626105 35.70860796 85.11188527 18.36765536 92 1 C100.91 1 109.82 1 119 1 C119 37.3 119 73.6 119 111 C112.73 111 106.46 111 100 111 C99.67 83.28 99.34 55.56 99 27 C94.05 39.87 89.1 52.74 84 66 C80.70721997 74.3212337 77.40601571 82.63688745 74.0625 90.9375 C73.26341381 92.92763077 72.46458678 94.91786563 71.66601562 96.90820312 C69.78027244 101.60665127 67.89122922 106.30375758 66 111 C61.71 111 57.42 111 53 111 C49.6091736 103.65831539 46.43118314 96.2791763 43.453125 88.76171875 C43.0376239 87.71965775 42.6221228 86.67759674 42.19403076 85.60395813 C40.87686269 82.29945761 39.56321538 78.99357307 38.25 75.6875 C36.95049567 72.42093441 35.6501822 69.15469451 34.34881592 65.88887024 C33.54491747 63.87094767 32.74208652 61.85259923 31.94073486 59.83366394 C27.70462672 49.18951081 23.33844792 38.60509491 19 28 C18.67 55.39 18.34 82.78 18 111 C12.06 111 6.12 111 0 111 C0 74.37 0 37.74 0 0 Z " fill="#797979" transform="translate(716,891)"/>
<path d="M0 0 C52.48621975 0 52.48621975 0 64.625 6.75 C65.28540283 7.10215576 65.94580566 7.45431152 66.6262207 7.81713867 C77.20930377 13.66592696 81.73025611 21.27017292 85.1171875 32.8046875 C86.14330154 37.1161979 86.34615609 41.26797523 86.3125 45.6875 C86.30686035 46.47060547 86.3012207 47.25371094 86.29541016 48.06054688 C86.06069716 59.42902179 83.62074789 68.67308524 77 78 C75.9171875 79.5778125 75.9171875 79.5778125 74.8125 81.1875 C62.84597881 93.15402119 48.14510043 95.14728356 32 97 C21.44 97 10.88 97 0 97 C0 64.99 0 32.98 0 0 Z " fill="#FEFEFE" transform="translate(2170,830)"/>
<path d="M0 0 C60.93935644 0 60.93935644 0 75.8125 13.0625 C86.72476915 24.84249176 86.69501139 40.38854892 86.17919922 55.40869141 C85.41317885 66.48572167 79.67772582 75.72185528 71.8125 83.25 C52.37400128 99.57314667 22.89597554 96 0 96 C0 64.32 0 32.64 0 0 Z " fill="#FEFEFE" transform="translate(379,497)"/>
<path d="M0 0 C1.27488281 -0.02578125 2.54976562 -0.0515625 3.86328125 -0.078125 C7.6875 0.25 7.6875 0.25 14.6875 3.25 C14.6875 12.16 14.6875 21.07 14.6875 30.25 C12.61746855 29.73249214 10.54542537 29.20032536 8.53125 28.49609375 C-2.30289556 24.75831353 -11.97664781 25.27832426 -22.3125 30.25 C-32.86512497 35.7698346 -38.63768082 48.51778668 -42.0625 59.4375 C-44.17153657 66.63520039 -44.47075113 73.78267763 -44.51782227 81.22436523 C-44.53267166 82.6889341 -44.53267166 82.6889341 -44.54782104 84.18309021 C-44.57926094 87.39156722 -44.60412388 90.600059 -44.62890625 93.80859375 C-44.64949091 96.04061759 -44.67048777 98.27263767 -44.69187927 100.50465393 C-44.74694375 106.36535584 -44.79642167 112.22609202 -44.84472656 118.08685303 C-44.89505597 124.07290682 -44.95068221 130.05891115 -45.00585938 136.04492188 C-45.11324975 147.77990714 -45.21424706 159.51493467 -45.3125 171.25 C-54.5525 171.25 -63.7925 171.25 -73.3125 171.25 C-73.3125 115.81 -73.3125 60.37 -73.3125 3.25 C-64.0725 3.25 -54.8325 3.25 -45.3125 3.25 C-44.9825 13.15 -44.6525 23.05 -44.3125 33.25 C-42.0025 28.96 -39.6925 24.67 -37.3125 20.25 C-27.34801937 7.86557408 -16.24101684 0.19587156 0 0 Z " fill="#232323" transform="translate(2424.3125,496.75)"/>
<path d="M0 0 C0 9.24 0 18.48 0 28 C-6 26 -6 26 -8.95703125 24.8984375 C-17.21663046 22.45978818 -26.52406933 23.20439306 -34.41015625 26.57421875 C-46.28090542 33.1093974 -51.85829292 43.88032249 -56.125 56.265625 C-56.85648059 58.83987398 -57.48914487 61.37395131 -58 64 C-58.17051376 64.83862579 -58.34102753 65.67725159 -58.51670837 66.54129028 C-59.13506561 70.96660631 -59.17691165 75.30589243 -59.20532227 79.76904297 C-59.22017166 81.21876244 -59.22017166 81.21876244 -59.23532104 82.69776917 C-59.26680459 85.87921737 -59.29164136 89.06068049 -59.31640625 92.2421875 C-59.33698713 94.45322041 -59.3579839 96.66424948 -59.37937927 98.87527466 C-59.43448278 104.68502694 -59.48394364 110.49481403 -59.53222656 116.30462646 C-59.5825273 122.23696987 -59.63816857 128.16926293 -59.69335938 134.1015625 C-59.80079755 145.73433352 -59.9017805 157.36714749 -60 169 C-68.91 169 -77.82 169 -87 169 C-87 113.56 -87 58.12 -87 1 C-78.09 1 -69.18 1 -60 1 C-59.505 16.345 -59.505 16.345 -59 32 C-58.030625 29.89625 -57.06125 27.7925 -56.0625 25.625 C-50.58278332 14.41394034 -42.99079971 6.94097281 -32 1 C-31.36835938 0.6390625 -30.73671875 0.278125 -30.0859375 -0.09375 C-21.08964885 -4.37392257 -9.1312549 -2.28281373 0 0 Z " fill="#1E1E1E" transform="translate(2344,180)"/>
<path d="M0 0 C0 9.24 0 18.48 0 28 C-3.63 26.68 -7.26 25.36 -11 24 C-14.04777353 23.6383096 -16.61519446 23.41903779 -19.625 23.5 C-20.71893066 23.51595215 -20.71893066 23.51595215 -21.83496094 23.53222656 C-30.34291717 23.83215005 -35.62501596 26.59092263 -42 32 C-42.66 32 -43.32 32 -44 32 C-44.27199219 32.56847656 -44.54398438 33.13695312 -44.82421875 33.72265625 C-46.03105696 36.06015351 -47.39614051 38.2214019 -48.8125 40.4375 C-59.06891536 57.53988454 -59.30617799 74.95525947 -59.4140625 94.26953125 C-59.43280509 96.40330223 -59.45238072 98.53706605 -59.4727478 100.67082214 C-59.52374871 106.24536889 -59.56354453 111.81993958 -59.60089111 117.39459229 C-59.64113328 123.09970873 -59.6921327 128.80472833 -59.7421875 134.50976562 C-59.83856673 145.67311532 -59.92209527 156.83650608 -60 168 C-68.91 168 -77.82 168 -87 168 C-87 112.89 -87 57.78 -87 1 C-78.09 1 -69.18 1 -60 1 C-59.505 16.345 -59.505 16.345 -59 32 C-58.030625 29.89625 -57.06125 27.7925 -56.0625 25.625 C-50.51251163 14.20871644 -41.86398063 4.77869881 -30.125 -0.375 C-20.51265405 -3.61057227 -9.48835095 -3.16278365 0 0 Z " fill="#1D1D1D" transform="translate(769,538)"/>
<path d="M0 0 C0 9.24 0 18.48 0 28 C-3.63 26.68 -7.26 25.36 -11 24 C-14.04783667 23.63830211 -16.61514273 23.41870048 -19.625 23.5 C-20.3557373 23.51135986 -21.08647461 23.52271973 -21.83935547 23.53442383 C-27.70861952 23.74558136 -32.08465264 24.8550108 -37 28 C-37.6084375 28.32742188 -38.216875 28.65484375 -38.84375 28.9921875 C-49.43914507 35.35871875 -54.57710195 50.08538659 -57.60864258 61.44995117 C-59.84107189 71.47856745 -59.48205426 81.70066409 -59.51171875 91.92578125 C-59.52859138 94.12681564 -59.54674503 96.32784055 -59.56611633 98.52885437 C-59.6133419 104.28096553 -59.64332812 110.03303822 -59.66955566 115.78527832 C-59.69950054 121.67138258 -59.74598259 127.55735464 -59.79101562 133.44335938 C-59.87673618 144.96218511 -59.94268838 156.48099785 -60 168 C-68.91 168 -77.82 168 -87 168 C-87 112.89 -87 57.78 -87 1 C-78.09 1 -69.18 1 -60 1 C-59.505 16.345 -59.505 16.345 -59 32 C-58.030625 29.89625 -57.06125 27.7925 -56.0625 25.625 C-50.51251163 14.20871644 -41.86398063 4.77869881 -30.125 -0.375 C-20.51265405 -3.61057227 -9.48835095 -3.16278365 0 0 Z " fill="#1D1D1D" transform="translate(1348,538)"/>
<path d="M0 0 C0 9.24 0 18.48 0 28 C-2.97 27.01 -5.94 26.02 -9 25 C-18.72832743 22.57146863 -28.16048981 23.25951932 -37 28 C-37.63550781 28.33902344 -38.27101563 28.67804688 -38.92578125 29.02734375 C-50.72623673 36.37973397 -55.43214458 51.53271084 -58.421875 64.30859375 C-60.34941355 76.61618789 -60.20524425 89.09552379 -60.31640625 101.51953125 C-60.33702245 103.47393689 -60.35801998 105.42833854 -60.37937927 107.38273621 C-60.43411886 112.48382297 -60.48373674 117.5849467 -60.53222656 122.68609619 C-60.58279687 127.9086021 -60.63829594 133.1310555 -60.69335938 138.35351562 C-60.80035086 148.56896688 -60.901466 158.78446367 -61 169 C-69.58 169 -78.16 169 -87 169 C-87 113.56 -87 58.12 -87 1 C-78.09 1 -69.18 1 -60 1 C-59.67 10.9 -59.34 20.8 -59 31 C-57.02 27.04 -55.04 23.08 -53 19 C-46.123803 9.62899089 -36.49679459 0.16350777 -24.5859375 -1.79296875 C-15.88129399 -2.48986619 -8.44397728 -2.41256494 0 0 Z " fill="#1E1E1E" transform="translate(654,217)"/>
<path d="M0 0 C0.77085938 0.00515625 1.54171875 0.0103125 2.3359375 0.015625 C7.96997768 0.09497768 7.96997768 0.09497768 9.125 1.25 C9.19819621 3.94654854 9.21742537 6.61691458 9.1875 9.3125 C9.18298828 10.07111328 9.17847656 10.82972656 9.17382812 11.61132812 C9.1620068 13.49091871 9.14407078 15.37046899 9.125 17.25 C8.5475 17.08886719 7.97 16.92773438 7.375 16.76171875 C3.19410616 15.81085574 -1.04089531 15.75429603 -5.1875 16.875 C-8.77632875 19.79923083 -9.79743099 23.66379149 -10.38671875 28.1171875 C-10.46113514 29.45233709 -10.51682864 30.78855832 -10.5625 32.125 C-10.665625 34.47625 -10.76875 36.8275 -10.875 39.25 C-1.965 39.25 6.945 39.25 16.125 39.25 C16.125 33.31 16.125 27.37 16.125 21.25 C19.10357193 20.24819803 22.08281336 19.24847613 25.0625 18.25 C25.91263672 17.96382812 26.76277344 17.67765625 27.63867188 17.3828125 C28.44755859 17.11210938 29.25644531 16.84140625 30.08984375 16.5625 C30.8387085 16.31113281 31.58757324 16.05976562 32.35913086 15.80078125 C34.125 15.25 34.125 15.25 35.125 15.25 C35.125 23.17 35.125 31.09 35.125 39.25 C41.395 39.25 47.665 39.25 54.125 39.25 C54.125 44.2 54.125 49.15 54.125 54.25 C47.855 54.25 41.585 54.25 35.125 54.25 C35.19917648 59.96158878 35.2821655 65.67166221 35.38745117 71.38256836 C35.42060159 73.32324235 35.448664 75.26401046 35.47143555 77.20483398 C35.50516384 80.00284747 35.55748819 82.8000061 35.61328125 85.59765625 C35.61967117 86.4583522 35.6260611 87.31904816 35.63264465 88.20582581 C35.76266031 93.59401717 36.5567735 97.47919947 39.125 102.25 C43.66711448 104.52105724 49.36864651 103.2012707 54.125 102.25 C54.125 107.2 54.125 112.15 54.125 117.25 C47.31627504 120.65436248 39.3558572 121.40533715 31.87890625 119.75390625 C26.24228362 117.86792855 22.93889472 114.73570757 19.4375 109.9375 C16.0426182 102.98607536 15.84670184 96.2062457 15.9296875 88.625 C15.9325174 87.63749756 15.93534729 86.64999512 15.93826294 85.63256836 C15.9493818 82.50491785 15.97447084 79.37756272 16 76.25 C16.01004052 74.11849374 16.01916449 71.98698296 16.02734375 69.85546875 C16.0475851 64.65344283 16.08674964 59.45204874 16.125 54.25 C7.215 54.25 -1.695 54.25 -10.875 54.25 C-10.875 75.37 -10.875 96.49 -10.875 118.25 C-17.145 118.25 -23.415 118.25 -29.875 118.25 C-29.875 97.13 -29.875 76.01 -29.875 54.25 C-34.165 54.25 -38.455 54.25 -42.875 54.25 C-42.875 49.3 -42.875 44.35 -42.875 39.25 C-38.585 39.25 -34.295 39.25 -29.875 39.25 C-29.94460938 38.08984375 -30.01421875 36.9296875 -30.0859375 35.734375 C-30.50793988 25.69674707 -30.20927872 17.60156494 -23.875 9.25 C-17.06323074 2.35566384 -9.48346959 -0.26161295 0 0 Z " fill="#787878" transform="translate(1280.875,883.75)"/>
<path d="M0 0 C7.86607704 5.19961025 11.90537756 13.91455098 14.63671875 22.68359375 C17.24095145 35.70475725 15.60014249 49.43800263 8.1796875 60.6328125 C6.19892569 63.2654706 4.12062879 65.51813372 1.63671875 67.68359375 C0.93546875 68.36421875 0.23421875 69.04484375 -0.48828125 69.74609375 C-10.75626618 76.66582273 -23.35843029 78.06176809 -35.375 76.22265625 C-45.14031096 73.85446386 -52.98958076 69.34570057 -58.89453125 61.12890625 C-65.97575537 49.33942141 -67.33459467 35.63027802 -64.6796875 22.234375 C-60.69755887 10.65150294 -53.52349535 1.93473344 -42.55078125 -3.45703125 C-28.108404 -9.13082231 -13.4080094 -7.46859367 0 0 Z " fill="#797979" transform="translate(1071.36328125,927.31640625)"/>
<path d="M0 0 C8.85115979 6.03208386 14.73092106 14.45355927 17 25 C17.75577049 39.53404792 17.2039691 52.98486387 8 65 C0.03696441 73.75261929 -10.13176466 77.3979133 -21.76171875 78.1875 C-33.33744788 78.44581474 -43.49273294 75.7890737 -52.3359375 67.921875 C-60.81671564 58.9051369 -63.18279235 49.90516901 -63.25 37.875 C-63.270625 36.97523438 -63.29125 36.07546875 -63.3125 35.1484375 C-63.3773357 23.86702526 -60.02650672 14.84161592 -52.6875 6.3125 C-38.09066063 -6.24757108 -17.11499091 -9.81290192 0 0 Z " fill="#797979" transform="translate(1219,926)"/>
<path d="M0 0 C8.91 0 17.82 0 27 0 C27 55.44 27 110.88 27 168 C18.09 168 9.18 168 0 168 C0 112.56 0 57.12 0 0 Z " fill="#1E1E1E" transform="translate(350,218)"/>
<path d="M0 0 C2.43169557 3.64754336 3.17969348 7.29554147 4.1953125 11.4921875 C6.76400924 21.64064906 10.19525664 31.33517504 13.875 41.125 C14.5287099 42.88530488 15.18143865 44.64597438 15.83325195 46.40698242 C17.19016819 50.07045226 18.55125528 53.73232976 19.91552734 57.39306641 C23.04462441 65.79823359 26.12813399 74.22010478 29.20977783 82.64276123 C30.16286892 85.24524312 31.11899067 87.84659427 32.07568359 90.44775391 C32.66903266 92.06539765 33.26229858 93.6830719 33.85546875 95.30078125 C34.11532059 96.00551071 34.37517242 96.71024017 34.64289856 97.43632507 C36.89397361 103.58878404 38.92507529 109.77522586 41 116 C14.6 116 -11.8 116 -39 116 C-38.32343526 111.94061155 -37.76882228 108.9625077 -36.39624023 105.24365234 C-35.90238075 103.89336945 -35.90238075 103.89336945 -35.39854431 102.51580811 C-35.03886063 101.54895081 -34.67917694 100.58209351 -34.30859375 99.5859375 C-33.9313063 98.55881653 -33.55401886 97.53169556 -33.16529846 96.47344971 C-32.3513423 94.25938945 -31.53501017 92.04620152 -30.71655273 89.83380127 C-29.42729726 86.34740985 -28.14528618 82.85843258 -26.86523438 79.36865234 C-23.06642692 69.01730859 -19.2506353 58.67231497 -15.41993713 48.33273315 C-13.95247569 44.36644941 -12.49223851 40.39753045 -11.03347778 36.42803955 C-10.35293726 34.58225048 -9.66884227 32.73776743 -8.98092651 30.89471436 C-5.16636286 20.67453609 -1.86436562 10.78446731 0 0 Z " fill="#FDFDFD" transform="translate(1810,142)"/>
<path d="M0 0 C0.83625896 27.51613601 0.83625896 27.51613601 -4 38 C-4.350625 38.79792969 -4.70125 39.59585938 -5.0625 40.41796875 C-10.01500563 50.408961 -18.01231288 58.68079218 -28.3125 62.9609375 C-38.68351437 66.40740264 -52.89651098 67.26176956 -62.890625 62.31640625 C-69.31494481 58.30715481 -73.87601709 54.25594996 -76.375 46.9375 C-78.37423881 37.54107761 -78.2756538 27.29475951 -73 19 C-62.21352707 6.41123033 -43.63109166 5.45087185 -28.33447266 3.21020508 C-25.60847272 2.81007407 -22.88430814 2.39883418 -20.16015625 1.98632812 C-18.41155577 1.72590742 -16.66286098 1.46611902 -14.9140625 1.20703125 C-14.10772369 1.08519974 -13.30138489 0.96336823 -12.47061157 0.83784485 C-8.27249732 0.22910191 -4.25640255 -0.13144397 0 0 Z " fill="#FDFDFD" transform="translate(610,622)"/>
<path d="M0 0 C11.2019966 8.29894396 16.30875633 17.54378164 19 31 C19 35.29 19 39.58 19 44 C-10.37 44 -39.74 44 -70 44 C-69.23097791 37.84782326 -68.44125861 33.55782606 -66.3125 28 C-66.04775879 27.30156982 -65.78301758 26.60313965 -65.51025391 25.88354492 C-63.40802716 20.56713394 -60.80949957 16.27820763 -57 12 C-56.07767578 10.78570313 -56.07767578 10.78570313 -55.13671875 9.546875 C-42.12909974 -5.95763614 -17.41487555 -11.04483258 0 0 Z " fill="#FCFCFC" transform="translate(1180,563)"/>
<path d="M0 0 C10.25075271 7.69276672 15.92592262 16.97349182 17.93359375 29.6953125 C18.55779886 34.22205597 19.1875 38.80061349 19.1875 43.375 C-10.5125 43.375 -40.2125 43.375 -70.8125 43.375 C-68.39993533 30.10589431 -64.90656536 19.43480681 -55.8125 9.375 C-55.29171875 8.75109375 -54.7709375 8.1271875 -54.234375 7.484375 C-41.11242754 -7.16634304 -16.68785175 -10.32238253 0 0 Z " fill="#FDFDFD" transform="translate(2449.8125,205.625)"/>
<path d="M0 0 C13.15279394 11.60694764 15.63011177 24.42973428 16.9609375 41.73046875 C-12.7390625 41.73046875 -42.4390625 41.73046875 -73.0390625 41.73046875 C-69.8417338 24.14516091 -63.79637179 10.80751233 -49.13671875 0.1484375 C-34.89225664 -9.48050058 -14.16146289 -10.6605808 0 0 Z " fill="#FDFDFD" transform="translate(2280.0390625,526.26953125)"/>
<path d="M0 0 C0 5.94 0 11.88 0 18 C-5 16 -5 16 -7.10546875 15.1484375 C-14.0431912 12.57119726 -20.8210442 11.96295076 -28 14 C-29.2621235 20.28160925 -29.2621235 20.28160925 -27 26 C-24.12553453 27.7739625 -21.04921688 29.01340521 -17.9375 30.3125 C-9.55728351 34.05008908 -1.32460806 37.87968831 3.0625 46.4375 C5.22917342 54.670859 4.24156237 61.55821692 0 69 C-4.79556054 75.27533351 -12.58112014 78.07749957 -20 80 C-29.41113347 81.11461469 -40.39360188 80.30319906 -49 76 C-49 69.73 -49 63.46 -49 57 C-45.77734375 58.52994792 -42.5546875 60.05989583 -39.33203125 61.58984375 C-32.81575733 64.34761032 -26.32432631 65.08796134 -19.5625 62.875 C-16.77758772 61.18897282 -16.77758772 61.18897282 -15.875 58.125 C-16.04013164 53.99670897 -17.11202068 52.93296342 -20 50 C-22.65082491 48.46721008 -25.4292846 47.30835277 -28.25 46.125 C-36.47697517 42.43950283 -43.2661977 38.96255607 -47.5 30.625 C-49.89198169 24.32469109 -49.91403853 18.75522793 -47.5625 12.4375 C-44.17053318 5.64166472 -38.48641603 0.52918951 -31.3125 -2 C-20.81649739 -4.53408163 -10.13202716 -3.37734239 0 0 Z " fill="#7A7A7A" transform="translate(1144,924)"/>
<path d="M0 0 C0 5.94 0 11.88 0 18 C-2.87772911 16.84890836 -5.74259856 15.66127083 -8.5625 14.375 C-14.55068884 12.1676336 -21.24849836 11.85044595 -27.37109375 13.7265625 C-33.29814422 16.48280903 -38.05860681 20.53822141 -40.4296875 26.79296875 C-42.63553022 35.32927789 -42.88485541 43.96188098 -39 52 C-36.29027826 56.33064291 -33.04446354 59.83235811 -28.09375 61.55859375 C-17.99326013 63.68798807 -10.27356059 61.03198286 -1 57 C-1 62.61 -1 68.22 -1 74 C-12.51642206 79.75821103 -24.5684312 80.75107368 -37 77 C-47.48832344 73.05690123 -54.25471878 66.59657883 -58.9921875 56.4921875 C-63.08090799 46.38132056 -63.97407045 34.48229269 -60.375 24 C-59.63380507 22.31028288 -58.84185851 20.64188554 -58 19 C-57.56429687 18.12859375 -57.12859375 17.2571875 -56.6796875 16.359375 C-51.45679946 6.82689081 -43.75649085 0.45690576 -33.5625 -3.25 C-21.77985627 -5.7618039 -11.14516577 -4.05278755 0 0 Z " fill="#7A7A7A" transform="translate(946,925)"/>
<path d="M0 0 C1.73830078 0.00966797 1.73830078 0.00966797 3.51171875 0.01953125 C6.3125 0.1875 6.3125 0.1875 7.3125 1.1875 C7.39881874 2.53017413 7.41956473 3.87724322 7.41015625 5.22265625 C7.40693359 6.03154297 7.40371094 6.84042969 7.40039062 7.67382812 C7.38782227 8.9490332 7.38782227 8.9490332 7.375 10.25 C7.37048828 11.10400391 7.36597656 11.95800781 7.36132812 12.83789062 C7.34950373 14.95445663 7.33156769 17.07098685 7.3125 19.1875 C6.24322266 18.94966797 6.24322266 18.94966797 5.15234375 18.70703125 C-0.87014182 17.60525604 -6.56682287 17.20289991 -12.1875 19.8125 C-16.46033141 23.87168984 -18.4456251 28.66637626 -18.84571838 34.49078369 C-18.86126266 35.33461609 -18.87680695 36.17844849 -18.89282227 37.04785156 C-18.91276749 38.00854553 -18.93271271 38.9692395 -18.95326233 39.95904541 C-18.96997482 40.98834167 -18.98668732 42.01763794 -19.00390625 43.078125 C-19.02468735 44.13787537 -19.04546844 45.19762573 -19.06687927 46.28948975 C-19.13222186 49.67209438 -19.19118881 53.05477612 -19.25 56.4375 C-19.29319975 58.73177878 -19.33681451 61.02604979 -19.38085938 63.3203125 C-19.48788765 68.94262948 -19.58919833 74.56502395 -19.6875 80.1875 C-25.9575 80.1875 -32.2275 80.1875 -38.6875 80.1875 C-38.6875 54.1175 -38.6875 28.0475 -38.6875 1.1875 C-32.4175 1.1875 -26.1475 1.1875 -19.6875 1.1875 C-19.3575 4.4875 -19.0275 7.7875 -18.6875 11.1875 C-18.295625 10.445 -17.90375 9.7025 -17.5 8.9375 C-13.07750553 2.22750839 -7.79407905 -0.09600769 0 0 Z " fill="#797979" transform="translate(997.6875,921.8125)"/>
<path d="M0 0 C5.88792797 3.45569597 9.22584471 8.29419599 11.1171875 14.76171875 C13.20584079 25.51024991 11.44678908 35.04928014 5.8125 44.375 C0.3017662 49.41338519 -5.19287218 49.93608883 -12.4375 49.71875 C-17.56581723 49.11862777 -21.33253409 47.53238727 -24.90234375 43.76171875 C-29.40574039 37.87466981 -30.74704118 31.92196454 -30.6875 24.5625 C-30.68331055 23.85762451 -30.67912109 23.15274902 -30.67480469 22.42651367 C-30.52545542 15.5222876 -29.20884472 10.43140786 -25.6875 4.5625 C-18.5586126 -2.18104214 -9.12659002 -4.09835552 0 0 Z " fill="#FDFDFD" transform="translate(1205.375,938.625)"/>
<path d="M0 0 C5.14040785 3.02916891 7.61023834 7.80444336 9.24609375 13.34765625 C11.04763871 22.94193058 10.75243456 33.69111029 5.42578125 42.12890625 C2.35871167 46.04928127 -0.22135367 48.19314228 -5.25 49.03125 C-13.66738939 49.65733681 -18.92777335 49.11855475 -25.875 44.15625 C-31.19555738 37.1555166 -33.27894906 27.72908499 -32.25 19.03125 C-32.12625 17.90783203 -32.12625 17.90783203 -32 16.76171875 C-30.89874584 10.0280084 -27.892819 4.80635889 -22.4296875 0.64453125 C-15.44295378 -3.38627666 -7.31025084 -3.18349633 0 0 Z " fill="#FDFDFD" transform="translate(1057.25,938.96875)"/>
<path d="M0 0 C5.94 0 11.88 0 18 0 C18 26.07 18 52.14 18 79 C12.06 79 6.12 79 0 79 C0 52.93 0 26.86 0 0 Z " fill="#787878" transform="translate(853,923)"/>
<path d="M0 0 C4.73966726 2.81581708 7.78797143 5.70766428 9.5546875 11.0078125 C10.28893489 17.89288642 9.69529966 22.41239066 5.5546875 28.0078125 C1.80603685 31.56422465 -1.86878047 33.82540315 -7.09375 34.1953125 C-13.00651403 33.78870409 -16.83832442 32.95855943 -21.07421875 28.671875 C-24.82505501 24.119578 -26.02361421 20.11765489 -25.7890625 14.3125 C-24.98239845 8.90418419 -22.56826366 4.5964937 -18.4453125 1.0078125 C-12.98027576 -2.44750105 -5.8896795 -2.38974216 0 0 Z " fill="#1F1F1F" transform="translate(371.4453125,141.9921875)"/>
<path d="M0 0 C2.70567626 1.82339052 4.53728718 3.07457436 6 6 C6.57791538 13.0505676 6.57791538 13.0505676 4.25 16.875 C1.16344962 19.79007536 -0.65937595 20.82513599 -4.875 21.375 C-8.84487514 20.89861498 -10.89536536 19.46959574 -14 17 C-16.45058519 13.32412221 -16.82568312 10.27019956 -16 6 C-11.2423268 -0.07924909 -7.53630932 -1.85102334 0 0 Z " fill="#7B7B7B" transform="translate(867,890)"/>
<path d="M0 0 C0.33 0 0.66 0 1 0 C1 2.97 1 5.94 1 9 C0.01 9.33 -0.98 9.66 -2 10 C-1.34 6.7 -0.68 3.4 0 0 Z " fill="#E4E4E4" transform="translate(274,185)"/>
</svg>
